# Blender 4.2.0
# www.blender.org
mtllib untitled.mtl
o Cylinder
v 0.000000 0.000000 -0.100000
v 0.000000 0.010000 -0.090000
v 0.000000 0.600000 -0.100000
v 0.019509 0.000000 -0.098079
v 0.017558 0.010000 -0.088271
v 0.019509 0.600000 -0.098079
v 0.038268 0.000000 -0.092388
v 0.034442 0.010000 -0.083149
v 0.038268 0.600000 -0.092388
v 0.055557 0.000000 -0.083147
v 0.050001 0.010000 -0.074832
v 0.055557 0.600000 -0.083147
v 0.070711 0.000000 -0.070711
v 0.063640 0.010000 -0.063640
v 0.070711 0.600000 -0.070711
v 0.083147 0.000000 -0.055557
v 0.074832 0.010000 -0.050001
v 0.083147 0.600000 -0.055557
v 0.092388 0.000000 -0.038268
v 0.083149 0.010000 -0.034442
v 0.092388 0.600000 -0.038268
v 0.098079 0.000000 -0.019509
v 0.088271 0.010000 -0.017558
v 0.098079 0.600000 -0.019509
v 0.100000 0.000000 0.000000
v 0.090000 0.010000 0.000000
v 0.100000 0.600000 0.000000
v 0.098079 0.000000 0.019509
v 0.088271 0.010000 0.017558
v 0.098079 0.600000 0.019509
v 0.083149 0.010000 0.034442
v 0.092388 0.000000 0.038268
v 0.092388 0.600000 0.038268
v 0.083147 0.000000 0.055557
v 0.074832 0.010000 0.050001
v 0.083147 0.600000 0.055557
v 0.070711 0.000000 0.070711
v 0.063640 0.010000 0.063640
v 0.070711 0.600000 0.070711
v 0.055557 0.000000 0.083147
v 0.050001 0.010000 0.074832
v 0.055557 0.600000 0.083147
v 0.038268 0.000000 0.092388
v 0.034442 0.010000 0.083149
v 0.038268 0.600000 0.092388
v 0.017558 0.010000 0.088271
v 0.019509 0.000000 0.098079
v 0.019509 0.600000 0.098079
v 0.000000 0.000000 0.100000
v 0.000000 0.010000 0.090000
v 0.000000 0.600000 0.100000
v -0.019509 0.000000 0.098079
v -0.017558 0.010000 0.088271
v -0.019509 0.600000 0.098079
v -0.038268 0.000000 0.092388
v -0.034442 0.010000 0.083149
v -0.038268 0.600000 0.092388
v -0.055557 0.000000 0.083147
v -0.050001 0.010000 0.074832
v -0.055557 0.600000 0.083147
v -0.070711 0.000000 0.070711
v -0.063640 0.010000 0.063640
v -0.070711 0.600000 0.070711
v -0.083147 0.000000 0.055557
v -0.074832 0.010000 0.050001
v -0.083147 0.600000 0.055557
v -0.092388 0.000000 0.038268
v -0.083149 0.010000 0.034442
v -0.092388 0.600000 0.038268
v -0.098079 0.000000 0.019509
v -0.088271 0.010000 0.017558
v -0.098079 0.600000 0.019509
v -0.100000 0.000000 0.000000
v -0.090000 0.010000 0.000000
v -0.100000 0.600000 0.000000
v -0.098079 0.000000 -0.019509
v -0.088271 0.010000 -0.017558
v -0.098079 0.600000 -0.019509
v -0.092388 0.000000 -0.038268
v -0.083149 0.010000 -0.034442
v -0.092388 0.600000 -0.038268
v -0.083147 0.000000 -0.055557
v -0.074832 0.010000 -0.050001
v -0.083147 0.600000 -0.055557
v -0.070711 0.000000 -0.070711
v -0.063640 0.010000 -0.063640
v -0.070711 0.600000 -0.070711
v -0.055557 0.000000 -0.083147
v -0.050001 0.010000 -0.074832
v -0.055557 0.600000 -0.083147
v -0.038268 0.000000 -0.092388
v -0.034442 0.010000 -0.083149
v -0.038268 0.600000 -0.092388
v -0.019509 0.000000 -0.098079
v -0.017558 0.010000 -0.088271
v -0.019509 0.600000 -0.098079
v -0.074832 0.600000 -0.050001
v -0.050001 0.600000 -0.074832
v -0.063640 0.600000 -0.063640
v -0.017558 0.600000 -0.088271
v -0.034442 0.600000 -0.083149
v 0.017558 0.600000 -0.088271
v 0.000000 0.600000 -0.090000
v -0.090000 0.600000 0.000000
v -0.088271 0.600000 -0.017558
v -0.088271 0.600000 0.017558
v -0.074832 0.600000 0.050001
v -0.050001 0.600000 0.074832
v -0.063640 0.600000 0.063640
v -0.083149 0.600000 0.034442
v -0.017558 0.600000 0.088271
v 0.017558 0.600000 0.088271
v 0.000000 0.600000 0.090000
v 0.063640 0.600000 0.063640
v 0.050001 0.600000 0.074832
v 0.074832 0.600000 0.050001
v 0.034442 0.600000 0.083149
v 0.050001 0.600000 -0.074832
v 0.074832 0.600000 -0.050001
v 0.063640 0.600000 -0.063640
v 0.090000 0.600000 0.000000
v 0.088271 0.600000 0.017558
v 0.088271 0.600000 -0.017558
v 0.083149 0.600000 -0.034442
v -0.083149 0.600000 -0.034442
v -0.034442 0.600000 0.083149
v 0.083149 0.600000 0.034442
v 0.034442 0.600000 -0.083149
vn 0.0980 -0.0000 -0.9952
vn 0.2903 -0.0000 -0.9569
vn 0.4714 -0.0000 -0.8819
vn 0.6344 -0.0000 -0.7730
vn 0.7730 -0.0000 -0.6344
vn 0.8819 -0.0000 -0.4714
vn 0.9569 -0.0000 -0.2903
vn 0.9952 -0.0000 -0.0980
vn 0.9952 -0.0000 0.0980
vn 0.9569 -0.0000 0.2903
vn 0.8819 -0.0000 0.4714
vn 0.7730 -0.0000 0.6344
vn 0.6344 -0.0000 0.7730
vn 0.4714 -0.0000 0.8819
vn 0.2903 -0.0000 0.9569
vn 0.0980 -0.0000 0.9952
vn -0.0980 -0.0000 0.9952
vn -0.2903 -0.0000 0.9569
vn -0.4714 -0.0000 0.8819
vn -0.6344 -0.0000 0.7730
vn -0.7730 -0.0000 0.6344
vn -0.8819 -0.0000 0.4714
vn -0.9569 -0.0000 0.2903
vn -0.9952 -0.0000 0.0980
vn -0.9952 -0.0000 -0.0980
vn -0.9569 -0.0000 -0.2903
vn -0.8819 -0.0000 -0.4714
vn -0.7730 -0.0000 -0.6344
vn -0.6344 -0.0000 -0.7730
vn -0.4714 -0.0000 -0.8819
vn -0.0000 1.0000 -0.0000
vn -0.2903 -0.0000 -0.9569
vn -0.0980 -0.0000 -0.9952
vn -0.0000 -1.0000 -0.0000
vt 1.000000 0.500000
vt 1.000000 1.000000
vt 0.968750 1.000000
vt 0.968750 0.500000
vt 0.937500 1.000000
vt 0.937500 0.500000
vt 0.906250 1.000000
vt 0.906250 0.500000
vt 0.875000 1.000000
vt 0.875000 0.500000
vt 0.843750 1.000000
vt 0.843750 0.500000
vt 0.812500 1.000000
vt 0.812500 0.500000
vt 0.781250 1.000000
vt 0.781250 0.500000
vt 0.750000 1.000000
vt 0.750000 0.500000
vt 0.718750 1.000000
vt 0.718750 0.500000
vt 0.687500 1.000000
vt 0.687500 0.500000
vt 0.656250 1.000000
vt 0.656250 0.500000
vt 0.625000 1.000000
vt 0.625000 0.500000
vt 0.593750 1.000000
vt 0.593750 0.500000
vt 0.562500 1.000000
vt 0.562500 0.500000
vt 0.531250 1.000000
vt 0.531250 0.500000
vt 0.500000 1.000000
vt 0.500000 0.500000
vt 0.468750 1.000000
vt 0.468750 0.500000
vt 0.437500 1.000000
vt 0.437500 0.500000
vt 0.406250 1.000000
vt 0.406250 0.500000
vt 0.375000 1.000000
vt 0.375000 0.500000
vt 0.343750 1.000000
vt 0.343750 0.500000
vt 0.312500 1.000000
vt 0.312500 0.500000
vt 0.281250 1.000000
vt 0.281250 0.500000
vt 0.250000 1.000000
vt 0.250000 0.500000
vt 0.218750 1.000000
vt 0.218750 0.500000
vt 0.187500 1.000000
vt 0.187500 0.500000
vt 0.156250 1.000000
vt 0.156250 0.500000
vt 0.125000 1.000000
vt 0.125000 0.500000
vt 0.093750 1.000000
vt 0.093750 0.500000
vt 0.062500 1.000000
vt 0.062500 0.500000
vt 0.449558 0.167340
vt 0.471731 0.158156
vt 0.485388 0.203178
vt 0.490000 0.250000
vt 0.485388 0.296822
vt 0.471731 0.341844
vt 0.449553 0.383337
vt 0.419706 0.419706
vt 0.383337 0.449553
vt 0.341844 0.471731
vt 0.332660 0.449558
vt 0.370003 0.429597
vt 0.402735 0.402735
vt 0.429597 0.370003
vt 0.449558 0.332660
vt 0.461850 0.292140
vt 0.466000 0.250000
vt 0.461850 0.207860
vt 0.296822 0.485388
vt 0.250000 0.490000
vt 0.203178 0.485388
vt 0.158156 0.471731
vt 0.116663 0.449553
vt 0.080294 0.419706
vt 0.050447 0.383337
vt 0.028269 0.341844
vt 0.014612 0.296822
vt 0.010000 0.250000
vt 0.014612 0.203178
vt 0.028269 0.158156
vt 0.050447 0.116663
vt 0.080294 0.080294
vt 0.116663 0.050447
vt 0.158156 0.028269
vt 0.203178 0.014612
vt 0.250000 0.010000
vt 0.296822 0.014612
vt 0.341844 0.028269
vt 0.383337 0.050447
vt 0.419706 0.080294
vt 0.449553 0.116663
vt 0.429597 0.129997
vt 0.402735 0.097265
vt 0.370003 0.070403
vt 0.332660 0.050442
vt 0.292140 0.038150
vt 0.250000 0.034000
vt 0.207860 0.038150
vt 0.167340 0.050442
vt 0.129997 0.070403
vt 0.097265 0.097265
vt 0.070403 0.129997
vt 0.050442 0.167340
vt 0.038150 0.207861
vt 0.034000 0.250000
vt 0.038150 0.292140
vt 0.050442 0.332660
vt 0.070403 0.370003
vt 0.097265 0.402735
vt 0.129997 0.429598
vt 0.167340 0.449558
vt 0.207860 0.461850
vt 0.250000 0.466000
vt 0.292140 0.461850
vt 0.031250 1.000000
vt 0.031250 0.500000
vt 0.000000 1.000000
vt 0.000000 0.500000
vt 0.703178 0.485388
vt 0.750000 0.490000
vt 0.796822 0.485388
vt 0.841844 0.471731
vt 0.883337 0.449553
vt 0.919706 0.419706
vt 0.949553 0.383337
vt 0.971731 0.341844
vt 0.985388 0.296822
vt 0.990000 0.250000
vt 0.985388 0.203178
vt 0.971731 0.158156
vt 0.949553 0.116663
vt 0.919706 0.080294
vt 0.883337 0.050447
vt 0.841844 0.028269
vt 0.796822 0.014612
vt 0.750000 0.010000
vt 0.703178 0.014612
vt 0.658156 0.028269
vt 0.616663 0.050447
vt 0.580294 0.080294
vt 0.550447 0.116663
vt 0.528269 0.158156
vt 0.514612 0.203178
vt 0.510000 0.250000
vt 0.514612 0.296822
vt 0.528269 0.341844
vt 0.550447 0.383337
vt 0.580294 0.419706
vt 0.616663 0.449553
vt 0.658156 0.471731
vt 1.000000 0.991667
vt 0.968750 0.991667
vt 0.937500 0.991667
vt 0.906250 0.991667
vt 0.875000 0.991667
vt 0.843750 0.991667
vt 0.812500 0.991667
vt 0.781250 0.991667
vt 0.750000 0.991667
vt 0.718750 0.991667
vt 0.687500 0.991667
vt 0.656250 0.991667
vt 0.625000 0.991667
vt 0.593750 0.991667
vt 0.562500 0.991667
vt 0.531250 0.991667
vt 0.500000 0.991667
vt 0.468750 0.991667
vt 0.437500 0.991667
vt 0.406250 0.991667
vt 0.375000 0.991667
vt 0.343750 0.991667
vt 0.312500 0.991667
vt 0.281250 0.991667
vt 0.250000 0.991667
vt 0.218750 0.991667
vt 0.187500 0.991667
vt 0.156250 0.991667
vt 0.125000 0.991667
vt 0.093750 0.991667
vt 0.062500 0.991667
vt 0.031250 0.991667
vt 0.000000 0.991667
s 0
f 1/1/1 3/2/1 6/3/1 4/4/1
f 4/4/2 6/3/2 9/5/2 7/6/2
f 7/6/3 9/5/3 12/7/3 10/8/3
f 10/8/4 12/7/4 15/9/4 13/10/4
f 13/10/5 15/9/5 18/11/5 16/12/5
f 16/12/6 18/11/6 21/13/6 19/14/6
f 19/14/7 21/13/7 24/15/7 22/16/7
f 22/16/8 24/15/8 27/17/8 25/18/8
f 25/18/9 27/17/9 30/19/9 28/20/9
f 28/20/10 30/19/10 33/21/10 32/22/10
f 32/22/11 33/21/11 36/23/11 34/24/11
f 34/24/12 36/23/12 39/25/12 37/26/12
f 37/26/13 39/25/13 42/27/13 40/28/13
f 40/28/14 42/27/14 45/29/14 43/30/14
f 43/30/15 45/29/15 48/31/15 47/32/15
f 47/32/16 48/31/16 51/33/16 49/34/16
f 49/34/17 51/33/17 54/35/17 52/36/17
f 52/36/18 54/35/18 57/37/18 55/38/18
f 55/38/19 57/37/19 60/39/19 58/40/19
f 58/40/20 60/39/20 63/41/20 61/42/20
f 61/42/21 63/41/21 66/43/21 64/44/21
f 64/44/22 66/43/22 69/45/22 67/46/22
f 67/46/23 69/45/23 72/47/23 70/48/23
f 70/48/24 72/47/24 75/49/24 73/50/24
f 73/50/25 75/49/25 78/51/25 76/52/25
f 76/52/26 78/51/26 81/53/26 79/54/26
f 79/54/27 81/53/27 84/55/27 82/56/27
f 82/56/28 84/55/28 87/57/28 85/58/28
f 85/58/29 87/57/29 90/59/29 88/60/29
f 88/60/30 90/59/30 93/61/30 91/62/30
f 127/63/31 33/64/31 30/65/31 27/66/31 24/67/31 21/68/31 18/69/31 15/70/31 12/71/31 9/72/31 128/73/31 118/74/31 120/75/31 119/76/31 124/77/31 123/78/31 121/79/31 122/80/31
f 128/73/31 9/72/31 6/81/31 3/82/31 96/83/31 93/84/31 90/85/31 87/86/31 84/87/31 81/88/31 78/89/31 75/90/31 72/91/31 69/92/31 66/93/31 63/94/31 60/95/31 57/96/31 54/97/31 51/98/31 48/99/31 45/100/31 42/101/31 39/102/31 36/103/31 33/64/31 127/63/31 116/104/31 114/105/31 115/106/31 117/107/31 112/108/31 113/109/31 111/110/31 126/111/31 108/112/31 109/113/31 107/114/31 110/115/31 106/116/31 104/117/31 105/118/31 125/119/31 97/120/31 99/121/31 98/122/31 101/123/31 100/124/31 103/125/31 102/126/31
f 91/62/32 93/61/32 96/127/32 94/128/32
f 94/128/33 96/127/33 3/129/33 1/130/33
f 94/131/34 1/132/34 4/133/34 7/134/34 10/135/34 13/136/34 16/137/34 19/138/34 22/139/34 25/140/34 28/141/34 32/142/34 34/143/34 37/144/34 40/145/34 43/146/34 47/147/34 49/148/34 52/149/34 55/150/34 58/151/34 61/152/34 64/153/34 67/154/34 70/155/34 73/156/34 76/157/34 79/158/34 82/159/34 85/160/34 88/161/34 91/162/34
f 103/163/17 2/1/17 5/4/17 102/164/17
f 102/164/18 5/4/18 8/6/18 128/165/18
f 128/165/19 8/6/19 11/8/19 118/166/19
f 118/166/20 11/8/20 14/10/20 120/167/20
f 14/10/21 17/12/21 119/168/21 120/167/21
f 17/12/22 20/14/22 124/169/22 119/168/22
f 20/14/23 23/16/23 123/170/23 124/169/23
f 23/16/24 26/18/24 121/171/24 123/170/24
f 26/18/25 29/20/25 122/172/25 121/171/25
f 29/20/26 31/22/26 127/173/26 122/172/26
f 31/22/27 35/24/27 116/174/27 127/173/27
f 35/24/28 38/26/28 114/175/28 116/174/28
f 38/26/29 41/28/29 115/176/29 114/175/29
f 41/28/30 44/30/30 117/177/30 115/176/30
f 44/30/32 46/32/32 112/178/32 117/177/32
f 46/32/33 50/34/33 113/179/33 112/178/33
f 50/34/1 53/36/1 111/180/1 113/179/1
f 53/36/2 56/38/2 126/181/2 111/180/2
f 56/38/3 59/40/3 108/182/3 126/181/3
f 59/40/4 62/42/4 109/183/4 108/182/4
f 109/183/5 62/42/5 65/44/5 107/184/5
f 107/184/6 65/44/6 68/46/6 110/185/6
f 110/185/7 68/46/7 71/48/7 106/186/7
f 106/186/8 71/48/8 74/50/8 104/187/8
f 104/187/9 74/50/9 77/52/9 105/188/9
f 105/188/10 77/52/10 80/54/10 125/189/10
f 125/189/11 80/54/11 83/56/11 97/190/11
f 97/190/12 83/56/12 86/58/12 99/191/12
f 99/191/13 86/58/13 89/60/13 98/192/13
f 98/192/14 89/60/14 92/62/14 101/193/14
f 101/193/15 92/62/15 95/128/15 100/194/15
f 100/194/16 95/128/16 2/130/16 103/195/16
f 86/160/31 83/159/31 80/158/31 77/157/31 74/156/31 71/155/31 68/154/31 65/153/31 62/152/31 59/151/31 56/150/31 53/149/31 50/148/31 46/147/31 44/146/31 41/145/31 38/144/31 35/143/31 31/142/31 29/141/31 26/140/31 23/139/31 20/138/31 17/137/31 14/136/31 11/135/31 8/134/31 5/133/31 2/132/31 95/131/31 92/162/31 89/161/31
o Cylinder.001
v 0.000000 0.010000 -0.090000
v 0.000000 0.610000 -0.090000
v 0.017558 0.010000 -0.088271
v 0.017558 0.610000 -0.088271
v 0.034442 0.010000 -0.083149
v 0.034442 0.610000 -0.083149
v 0.050001 0.010000 -0.074832
v 0.050001 0.610000 -0.074832
v 0.063640 0.010000 -0.063640
v 0.063640 0.610000 -0.063640
v 0.074832 0.010000 -0.050001
v 0.074832 0.610000 -0.050001
v 0.083149 0.010000 -0.034442
v 0.083149 0.610000 -0.034442
v 0.088271 0.010000 -0.017558
v 0.088271 0.610000 -0.017558
v 0.090000 0.010000 0.000000
v 0.090000 0.610000 0.000000
v 0.088271 0.010000 0.017558
v 0.088271 0.610000 0.017558
v 0.083149 0.010000 0.034442
v 0.083149 0.610000 0.034442
v 0.074832 0.010000 0.050001
v 0.074832 0.610000 0.050001
v 0.063640 0.010000 0.063640
v 0.063640 0.610000 0.063640
v 0.050001 0.010000 0.074832
v 0.050001 0.610000 0.074832
v 0.034442 0.010000 0.083149
v 0.034442 0.610000 0.083149
v 0.017558 0.010000 0.088271
v 0.017558 0.610000 0.088271
v 0.000000 0.010000 0.090000
v 0.000000 0.610000 0.090000
v -0.017558 0.010000 0.088271
v -0.017558 0.610000 0.088271
v -0.034442 0.010000 0.083149
v -0.034442 0.610000 0.083149
v -0.050001 0.010000 0.074832
v -0.050001 0.610000 0.074832
v -0.063640 0.010000 0.063640
v -0.063640 0.610000 0.063640
v -0.074832 0.010000 0.050001
v -0.074832 0.610000 0.050001
v -0.083149 0.010000 0.034442
v -0.083149 0.610000 0.034442
v -0.088271 0.010000 0.017558
v -0.088271 0.610000 0.017558
v -0.090000 0.010000 0.000000
v -0.090000 0.610000 0.000000
v -0.088271 0.010000 -0.017558
v -0.088271 0.610000 -0.017558
v -0.083149 0.010000 -0.034442
v -0.083149 0.610000 -0.034442
v -0.074832 0.010000 -0.050001
v -0.074832 0.610000 -0.050001
v -0.063640 0.010000 -0.063640
v -0.063640 0.610000 -0.063640
v -0.050001 0.010000 -0.074832
v -0.050001 0.610000 -0.074832
v -0.034442 0.010000 -0.083149
v -0.034442 0.610000 -0.083149
v -0.017558 0.010000 -0.088271
v -0.017558 0.610000 -0.088271
vn 0.0980 -0.0000 -0.9952
vn 0.2903 -0.0000 -0.9569
vn 0.4714 -0.0000 -0.8819
vn 0.6344 -0.0000 -0.7730
vn 0.7730 -0.0000 -0.6344
vn 0.8819 -0.0000 -0.4714
vn 0.9569 -0.0000 -0.2903
vn 0.9952 -0.0000 -0.0980
vn 0.9952 -0.0000 0.0980
vn 0.9569 -0.0000 0.2903
vn 0.8819 -0.0000 0.4714
vn 0.7730 -0.0000 0.6344
vn 0.6344 -0.0000 0.7730
vn 0.4714 -0.0000 0.8819
vn 0.2903 -0.0000 0.9569
vn 0.0980 -0.0000 0.9952
vn -0.0980 -0.0000 0.9952
vn -0.2903 -0.0000 0.9569
vn -0.4714 -0.0000 0.8819
vn -0.6344 -0.0000 0.7730
vn -0.7730 -0.0000 0.6344
vn -0.8819 -0.0000 0.4714
vn -0.9569 -0.0000 0.2903
vn -0.9952 -0.0000 0.0980
vn -0.9952 -0.0000 -0.0980
vn -0.9569 -0.0000 -0.2903
vn -0.8819 -0.0000 -0.4714
vn -0.7730 -0.0000 -0.6344
vn -0.6344 -0.0000 -0.7730
vn -0.4714 -0.0000 -0.8819
vn -0.0000 1.0000 -0.0000
vn -0.2903 -0.0000 -0.9569
vn -0.0980 -0.0000 -0.9952
vn -0.0000 -1.0000 -0.0000
vt 1.000000 0.500000
vt 1.000000 1.000000
vt 0.968750 1.000000
vt 0.968750 0.500000
vt 0.937500 1.000000
vt 0.937500 0.500000
vt 0.906250 1.000000
vt 0.906250 0.500000
vt 0.875000 1.000000
vt 0.875000 0.500000
vt 0.843750 1.000000
vt 0.843750 0.500000
vt 0.812500 1.000000
vt 0.812500 0.500000
vt 0.781250 1.000000
vt 0.781250 0.500000
vt 0.750000 1.000000
vt 0.750000 0.500000
vt 0.718750 1.000000
vt 0.718750 0.500000
vt 0.687500 1.000000
vt 0.687500 0.500000
vt 0.656250 1.000000
vt 0.656250 0.500000
vt 0.625000 1.000000
vt 0.625000 0.500000
vt 0.593750 1.000000
vt 0.593750 0.500000
vt 0.562500 1.000000
vt 0.562500 0.500000
vt 0.531250 1.000000
vt 0.531250 0.500000
vt 0.500000 1.000000
vt 0.500000 0.500000
vt 0.468750 1.000000
vt 0.468750 0.500000
vt 0.437500 1.000000
vt 0.437500 0.500000
vt 0.406250 1.000000
vt 0.406250 0.500000
vt 0.375000 1.000000
vt 0.375000 0.500000
vt 0.343750 1.000000
vt 0.343750 0.500000
vt 0.312500 1.000000
vt 0.312500 0.500000
vt 0.281250 1.000000
vt 0.281250 0.500000
vt 0.250000 1.000000
vt 0.250000 0.500000
vt 0.218750 1.000000
vt 0.218750 0.500000
vt 0.187500 1.000000
vt 0.187500 0.500000
vt 0.156250 1.000000
vt 0.156250 0.500000
vt 0.125000 1.000000
vt 0.125000 0.500000
vt 0.093750 1.000000
vt 0.093750 0.500000
vt 0.062500 1.000000
vt 0.062500 0.500000
vt 0.296822 0.485388
vt 0.250000 0.490000
vt 0.203178 0.485388
vt 0.158156 0.471731
vt 0.116663 0.449553
vt 0.080294 0.419706
vt 0.050447 0.383337
vt 0.028269 0.341844
vt 0.014612 0.296822
vt 0.010000 0.250000
vt 0.014612 0.203178
vt 0.028269 0.158156
vt 0.050447 0.116663
vt 0.080294 0.080294
vt 0.116663 0.050447
vt 0.158156 0.028269
vt 0.203178 0.014612
vt 0.250000 0.010000
vt 0.296822 0.014612
vt 0.341844 0.028269
vt 0.383337 0.050447
vt 0.419706 0.080294
vt 0.449553 0.116663
vt 0.471731 0.158156
vt 0.485388 0.203178
vt 0.490000 0.250000
vt 0.485388 0.296822
vt 0.471731 0.341844
vt 0.449553 0.383337
vt 0.419706 0.419706
vt 0.383337 0.449553
vt 0.341844 0.471731
vt 0.031250 1.000000
vt 0.031250 0.500000
vt 0.000000 1.000000
vt 0.000000 0.500000
vt 0.750000 0.490000
vt 0.796822 0.485388
vt 0.841844 0.471731
vt 0.883337 0.449553
vt 0.919706 0.419706
vt 0.949553 0.383337
vt 0.971731 0.341844
vt 0.985388 0.296822
vt 0.990000 0.250000
vt 0.985388 0.203178
vt 0.971731 0.158156
vt 0.949553 0.116663
vt 0.919706 0.080294
vt 0.883337 0.050447
vt 0.841844 0.028269
vt 0.796822 0.014612
vt 0.750000 0.010000
vt 0.703178 0.014612
vt 0.658156 0.028269
vt 0.616663 0.050447
vt 0.580294 0.080294
vt 0.550447 0.116663
vt 0.528269 0.158156
vt 0.514612 0.203178
vt 0.510000 0.250000
vt 0.514612 0.296822
vt 0.528269 0.341844
vt 0.550447 0.383337
vt 0.580294 0.419706
vt 0.616663 0.449553
vt 0.658156 0.471731
vt 0.703178 0.485388
s 0
f 129/196/35 130/197/35 132/198/35 131/199/35
f 131/199/36 132/198/36 134/200/36 133/201/36
f 133/201/37 134/200/37 136/202/37 135/203/37
f 135/203/38 136/202/38 138/204/38 137/205/38
f 137/205/39 138/204/39 140/206/39 139/207/39
f 139/207/40 140/206/40 142/208/40 141/209/40
f 141/209/41 142/208/41 144/210/41 143/211/41
f 143/211/42 144/210/42 146/212/42 145/213/42
f 145/213/43 146/212/43 148/214/43 147/215/43
f 147/215/44 148/214/44 150/216/44 149/217/44
f 149/217/45 150/216/45 152/218/45 151/219/45
f 151/219/46 152/218/46 154/220/46 153/221/46
f 153/221/47 154/220/47 156/222/47 155/223/47
f 155/223/48 156/222/48 158/224/48 157/225/48
f 157/225/49 158/224/49 160/226/49 159/227/49
f 159/227/50 160/226/50 162/228/50 161/229/50
f 161/229/51 162/228/51 164/230/51 163/231/51
f 163/231/52 164/230/52 166/232/52 165/233/52
f 165/233/53 166/232/53 168/234/53 167/235/53
f 167/235/54 168/234/54 170/236/54 169/237/54
f 169/237/55 170/236/55 172/238/55 171/239/55
f 171/239/56 172/238/56 174/240/56 173/241/56
f 173/241/57 174/240/57 176/242/57 175/243/57
f 175/243/58 176/242/58 178/244/58 177/245/58
f 177/245/59 178/244/59 180/246/59 179/247/59
f 179/247/60 180/246/60 182/248/60 181/249/60
f 181/249/61 182/248/61 184/250/61 183/251/61
f 183/251/62 184/250/62 186/252/62 185/253/62
f 185/253/63 186/252/63 188/254/63 187/255/63
f 187/255/64 188/254/64 190/256/64 189/257/64
f 132/258/65 130/259/65 192/260/65 190/261/65 188/262/65 186/263/65 184/264/65 182/265/65 180/266/65 178/267/65 176/268/65 174/269/65 172/270/65 170/271/65 168/272/65 166/273/65 164/274/65 162/275/65 160/276/65 158/277/65 156/278/65 154/279/65 152/280/65 150/281/65 148/282/65 146/283/65 144/284/65 142/285/65 140/286/65 138/287/65 136/288/65 134/289/65
f 189/257/66 190/256/66 192/290/66 191/291/66
f 191/291/67 192/290/67 130/292/67 129/293/67
f 129/294/68 131/295/68 133/296/68 135/297/68 137/298/68 139/299/68 141/300/68 143/301/68 145/302/68 147/303/68 149/304/68 151/305/68 153/306/68 155/307/68 157/308/68 159/309/68 161/310/68 163/311/68 165/312/68 167/313/68 169/314/68 171/315/68 173/316/68 175/317/68 177/318/68 179/319/68 181/320/68 183/321/68 185/322/68 187/323/68 189/324/68 191/325/68
